<svg xmlns="http://www.w3.org/2000/svg" xmlns:xlink="http://www.w3.org/1999/xlink" width="1024" height="1024" viewBox="0 0 1024 1024" role="img" aria-label="YTPN Logo">
  <defs>
    <linearGradient id="ytpn-gradient-light" gradientUnits="userSpaceOnUse" x1="700" y1="425" x2="740" y2="360">
      <stop offset="0" stop-color="#1a3d1a" />
      <stop offset="1" stop-color="#2d7b2d" />
    </linearGradient>
  </defs>
  
  <!-- Main logo shape -->
  <path fill="#2d7b2d" d="M127.46 547.177C126.932 543.37 127.492 523.278 127.492 517.991L127.478 357.399C127.526 301.117 125.583 296.487 175.393 266.394L351.029 160.905C387.235 139.313 423.025 116.617 459.78 95.9239C471.818 89.1466 480.097 81.7756 493.91 77.858C525.777 68.8203 547.754 86.4809 573.854 101.499C601.07 117.16 628.112 135.37 655.572 150.307L656.271 150.84C663.701 156.428 673.398 161.305 681.425 166.239C732.594 197.693 784.788 227.776 835.875 259.335C882.234 287.974 896.081 288.26 896.029 345.444L892.068 652.499C889.903 732.758 890.474 726.527 825.365 766.986C785.824 791.557 745.514 814.887 705.509 838.661L563.859 922.27C523.831 945.932 509.464 950.579 467.216 925.408L178.173 753.85C138.607 730.095 132.698 719.155 131.241 670.504L128.369 568.504C128.122 561.407 127.495 554.262 127.46 547.177ZM637.566 226.146C628.712 221.537 617.321 214.351 608.591 209.15L557.468 178.924C515.525 154.494 505.639 153.942 466.118 178.605L438.178 196.018C403.078 217.777 366.826 238.975 331.24 259.921L241.791 313.155C200.494 337.691 207.57 341.902 205.796 384.9C205.595 398.555 204.276 412.271 204.056 425.819C203.776 443.037 205.015 463.935 204.059 480.614C204.01 497.414 206.409 516.29 207.542 533.193C209.573 563.49 205.705 592.966 205.77 623.247C205.824 648.328 196.198 675.727 223.933 692.144L487.208 850.698C499.469 858.001 510.759 860.081 524.959 856.748C537.629 853.773 583.225 823.936 596.192 816.093L778.701 705.84C813.202 685.136 818.724 684.106 818.138 643.387C817.694 612.555 813.464 581.918 813.433 551.042C813.364 519.388 817.963 487.396 817.982 454.074L817.86 359.853C818.085 329.256 796.455 321.464 773.612 308.052L660.098 240.012C652.502 235.452 645.284 230.517 637.566 226.146Z" />
  
  <!-- Secondary elements -->
  <path fill="#1a3d1a" d="M633.69 426.826C638.75 436.702 646.395 445.019 655.812 450.89C631.675 467.94 607.003 488.664 582.971 506.675L547.792 532.602C542.738 536.329 533.12 543.08 529.011 547.177L528.99 618.304C528.987 628.392 528.508 643.292 529.011 653.004L528.706 654.676C525.986 654.838 498.525 653.245 496.049 653.004L496.049 548.526C489.032 541.679 467.116 526.19 458.973 520.269L406.914 482.036C395.166 473.514 378.265 461.831 367.437 452.707C380.486 441.912 380.289 441.9 391.295 429.219L391.585 428.889C397.331 431.062 420.513 448.83 427.212 453.67L476.011 489.151C488.257 498.087 500.321 506.684 512.17 516.197C546.116 487.266 596.663 453.054 633.69 426.826Z" />
  
  <path fill="#1a3d1a" d="M529.011 653.004C529.742 654.882 529.578 654.914 531.618 655.636C587.723 675.476 589.017 754.485 535.811 775.11C458.546 805.063 412.575 693.941 483.877 659.316C485.968 658.301 494.62 654.211 496.049 653.004C498.525 653.245 525.986 654.838 528.706 654.676L529.011 653.004Z" />
  
  <path fill="#1a3d1a" d="M321.383 338.144C372.639 330.536 413.36 372.095 394.124 420.525C393.472 422.169 391.571 427.478 391.585 428.889L391.295 429.219C380.289 441.9 380.486 441.912 367.437 452.707L366.935 452.302C313.823 480.668 261.407 426.862 277.745 382.439C281.823 361.772 301.723 344.07 321.383 338.144Z" />
  
  <!-- Gradient accent element -->
  <path fill="url(#ytpn-gradient-light)" d="M633.69 426.826C619.709 399.535 628.046 366.111 653.208 348.584C678.37 331.058 712.612 334.823 733.365 357.398C754.117 379.973 754.994 414.41 735.416 438.011C715.839 461.613 681.832 467.114 655.812 450.89C646.395 445.019 638.75 436.702 633.69 426.826Z" />
</svg>